<?xml version="1.0" encoding="utf-8"?>
<!-- Generator: Adobe Illustrator 23.0.3, SVG Export Plug-In . SVG Version: 6.00 Build 0)  -->
<svg version="1.1" id="Слой_1" xmlns="http://www.w3.org/2000/svg" xmlns:xlink="http://www.w3.org/1999/xlink" x="0px" y="0px"
	 viewBox="0 0 512 512" style="enable-background:new 0 0 512 512;" xml:space="preserve">
<style type="text/css">
	.st0{fill:#242424;}
	.st1{fill:#00953B;}
</style>
<g id="Glass_House">
	<g id="Outline">
		<path d="M104,400c-4.4,0-8,3.6-8,8v32c0,4.4,3.6,8,8,8s8-3.6,8-8v-32C112,403.6,108.4,400,104,400z"/>
		<path class="st0" d="M475.8,210.8c-3.2-3-8.3-2.8-11.3,0.4c-3,3.2-2.8,8.3,0.4,11.3l18.8,17.5H347l-109.7-96h75.8c4.4,0,8-3.6,8-8
			s-3.6-8-8-8c-190.1,0.1-179-1-182.4,2l-32,28c-3.3,2.9-3.6,8-0.7,11.3c1.5,1.7,3.7,2.7,6,2.7c5.3,0,5.1-2.8,32-25.4L242.7,240
			H29.3L59,214c3.3-2.9,3.6-8,0.7-11.3c-2.9-3.3-7.9-3.6-11.2-0.8C1.2,243.3,0,243,0,248v240c0,4.4,3.6,8,8,8h496c4.4,0,8-3.6,8-8
			V248C512,243.1,511.8,244.3,475.8,210.8z M64,480H16v-32h48V480z M64,432H16v-32h48V432z M16,384v-32h66.4
			c-8.2,9.1-13.9,20.1-16.6,32H16z M192,480H80v-80c0-30.9,25.1-56,56-56s56,25.1,56,56V480z M256,480h-48v-32h48V480z M256,432h-48
			v-32h48V432z M256,384h-49.8c-2.7-11.9-8.4-22.9-16.6-32H256V384z M256,336h-87.1c-20.7-10.7-45.2-10.7-65.8,0H16v-32.3h240V336z
			 M256,287.7H16V256h240V287.7z M157.3,144H213l109.7,96H267L157.3,144z M336,480h-64V256h64V480z M416,480h-64V256h64V480z
			 M496,480h-64V256h64V480z"/>
		<path class="st0" d="M301.7,349.7l16-16c3.1-3.1,3.1-8.2,0-11.3s-8.2-3.1-11.3,0l-16,16c-3.1,3.1-3.1,8.2,0,11.3
			S298.5,352.8,301.7,349.7z"/>
		<path class="st0" d="M301.7,389.7l16-16c3.1-3.1,3.1-8.2,0-11.3s-8.2-3.1-11.3,0l-16,16c-3.1,3.1-3.1,8.2,0,11.3
			S298.5,392.8,301.7,389.7z"/>
		<path class="st0" d="M381.7,349.7l16-16c3.1-3.1,3.1-8.2,0-11.3s-8.2-3.1-11.3,0l-16,16c-3.1,3.1-3.1,8.2,0,11.3
			S378.5,352.8,381.7,349.7z"/>
		<path class="st0" d="M381.7,389.7l16-16c3.1-3.1,3.1-8.2,0-11.3s-8.2-3.1-11.3,0l-16,16c-3.1,3.1-3.1,8.2,0,11.3
			S378.5,392.8,381.7,389.7z"/>
		<path class="st0" d="M456,352c5.7,0,7-4.6,21.7-18.3c3.1-3.1,3.1-8.2,0-11.3s-8.2-3.1-11.3,0l-16,16c-3.1,3.1-3.1,8.2,0,11.3
			C451.9,351.2,453.9,352,456,352z"/>
		<path class="st0" d="M456,392c5.7,0,7-4.6,21.7-18.3c3.1-3.1,3.1-8.2,0-11.3s-8.2-3.1-11.3,0l-16,16c-3.1,3.1-3.1,8.2,0,11.3
			C451.9,391.2,453.9,392,456,392z"/>
		<path class="st1" d="M372.9,191.8l-18.5,18.5c-3.1,3.1-3.1,8.2,0,11.3c1.5,1.5,3.5,2.3,5.6,2.3c5.7,0,6.3-4,24-20.7
			c28.2,20.5,63.7,4.9,88.6-20C506,149.9,511.8,76.4,512,73.3c0.3-4.4-3-8.2-7.4-8.6c-0.4,0-0.8,0-1.2,0
			c-3.1,0.2-76.6,5.9-109.9,39.3C359.5,138,358.4,171.2,372.9,191.8z M495,81.7c-2.6,20.3-11,67.5-33.6,90.2
			c-23.2,23.2-48.6,30.5-65.8,19.8l66.1-66.1c3.1-3.1,3.1-8.2,0-11.3c-3.1-3.1-8.2-3.1-11.3,0l-65.9,65.9
			c-9.9-17.2-2.4-42.2,20.4-64.9C427.4,92.7,474.7,84.4,495,81.7z"/>
		<path class="st1" d="M345.1,142.9c22.3,0-19.2-34.6,72.8-106.7c2.4,5.2,5.7,12.5,8.9,21c1.5,4.1,6.1,6.3,10.3,4.7
			c4.1-1.5,6.3-6.1,4.7-10.3c0,0,0-0.1,0-0.1c-4-10.7-8.7-21.1-13.9-31.3c-2.1-3.9-6.9-5.4-10.8-3.3c-0.3,0.1-0.5,0.3-0.8,0.5
			c-2.6,1.8-64.5,45.7-75.6,92.4c-2,8.1-3.1,16.4-3.4,24.8c-0.1,4.4,3.3,8.1,7.8,8.2C345,142.9,345.1,142.9,345.1,142.9z"/>
		<circle cx="80" cy="184" r="8"/>
	</g>
</g>
</svg>
