<?xml version="1.0" encoding="utf-8"?>
<!-- Generator: Adobe Illustrator 23.0.3, SVG Export Plug-In . SVG Version: 6.00 Build 0)  -->
<svg version="1.1" id="Capa_1" xmlns="http://www.w3.org/2000/svg" xmlns:xlink="http://www.w3.org/1999/xlink" x="0px" y="0px"
	 viewBox="0 0 496 496" style="enable-background:new 0 0 496 496;" xml:space="preserve">
<style type="text/css">
	.st0{fill:#292929;}
	.st1{fill:#00953B;}
</style>
<g>
	<g>
		<g>
			<path class="st0" d="M472,0h-24H288H171.5c-10.3,0-19.5,6.6-22.8,16.4l-2.5,7.6H120c-13.2,0-24,10.8-24,24v10.4
				C72.9,65.3,56,86.7,56,112c0,16.7,7.4,31.7,19,42c-17.9,13.6-30.1,33.7-33.8,56.1C17.5,216.5,0,238.2,0,264c0,30.9,25.1,56,56,56
				v48h36c3,11.6,7.6,22.6,13.7,33l-25.5,25.5l45.3,45.3l25.5-25.5c10.4,6.1,21.4,10.7,33,13.7v36h64v-36c11.6-3,22.6-7.6,33-13.7
				l25.5,25.5l45.3-45.3L326.2,401c6.1-10.4,10.7-21.4,13.7-33h36v-64h-36c-3-11.6-7.6-22.6-13.7-33l23-23H448V144v-16h24
				c13.2,0,24-10.8,24-24V24C496,10.8,485.2,0,472,0z M360,16c13.2,0,24,10.8,24,24s-10.8,24-24,24s-24-10.8-24-24S346.8,16,360,16z
				 M304,16h24.2c-5.1,6.7-8.2,15-8.2,24c0,22.1,17.9,40,40,40c9,0,17.3-3.1,24-8.2V128h-80V16z M238.5,16c-3.3,9.3-12.1,16-22.5,16
				s-19.2-6.7-22.5-16H238.5z M72,112c0-22.1,17.9-40,40-40s40,17.9,40,40s-17.9,40-40,40c-8.2,0-15.8-2.5-22.2-6.8l-0.2-0.4
				c-0.1,0-0.1,0.1-0.2,0.1C78.9,137.7,72,125.7,72,112z M89.5,163.2c2.1,0.9,4.3,1.7,6.5,2.4v59.2c-10-10.2-23.7-16.3-38.2-16.8
				C62,189.7,73.5,173.4,89.5,163.2z M56,304c-22.1,0-40-17.9-40-40s17.9-40,40-40c12.1,0,23.4,5.6,31,14.8l-6.7,6.7l25.5,25.5
				C99.6,281.4,95,292.4,92,304H64H56z M328,246.6l-22.2,22.2l3.6,5.4c8,12.1,13.5,25.3,16.3,39.3l1.3,6.4H360v32h-32.9l-1.3,6.4
				c-2.8,14-8.3,27.2-16.3,39.3l-3.6,5.4l23.3,23.3l-22.6,22.6l-23.3-23.3l-5.4,3.6c-12.1,8-25.3,13.5-39.3,16.3l-6.4,1.3V480h-32
				v-32.9l-6.4-1.3c-14-2.8-27.2-8.3-39.3-16.3l-5.4-3.6l-23.3,23.3l-22.6-22.6l23.3-23.3l-3.6-5.4c-8-12.1-13.5-25.3-16.3-39.3
				l-1.3-6.4H72v-32h32.9l1.3-6.4c2.8-14,8.3-27.2,16.3-39.3l3.6-5.4l-23.3-23.3l22.6-22.6l23.3,23.3l5.4-3.6
				c12.1-8,25.3-13.5,39.3-16.3l6.4-1.3V192h32v32.9l6.4,1.3c14,2.8,27.2,8.3,39.3,16.3l5.4,3.6l23.3-23.3l21.5,21.5V246.6z
				 M432,232h-93.7l-31.8-31.8L281,225.7c-10.4-6.1-21.4-10.7-33-13.7v-36h-64v36c-11.6,3-22.6,7.6-33,13.7l-25.5-25.5L112,213.7
				V168c30.9,0,56-25.1,56-56s-25.1-56-56-56v-8c0-4.4,3.6-8,8-8h37.8l6.2-18.5c1.1-3.3,4.2-5.5,7.6-5.5h5.3
				c3.7,18.2,19.9,32,39.2,32s35.5-13.8,39.2-32H288v88.2c-6.7-5.1-15-8.2-24-8.2c-22.1,0-40,17.9-40,40s17.9,40,40,40
				c19.3,0,35.5-13.8,39.2-32H432V232z M288,136c0,13.2-10.8,24-24,24s-24-10.8-24-24s10.8-24,24-24S288,122.8,288,136z M480,104
				c0,4.4-3.6,8-8,8h-24V96h-16v16v16h-32V40c0-9-3.1-17.3-8.2-24H432v64h16V16h24c4.4,0,8,3.6,8,8V104z"/>
			<path class="st1" d="M56,240c-13.2,0-24,10.8-24,24s10.8,24,24,24s24-10.8,24-24S69.2,240,56,240z M56,272c-4.4,0-8-3.6-8-8
				s3.6-8,8-8s8,3.6,8,8S60.4,272,56,272z"/>
			<path class="st1" d="M112,136c13.2,0,24-10.8,24-24s-10.8-24-24-24s-24,10.8-24,24S98.8,136,112,136z M112,104c4.4,0,8,3.6,8,8
				s-3.6,8-8,8s-8-3.6-8-8S107.6,104,112,104z"/>
			<path class="st1" d="M216,256c-44.1,0-80,35.9-80,80s35.9,80,80,80c15.2,0,29.9-4.3,42.7-12.4l-8.6-13.5
				c-10.2,6.5-22,9.9-34.2,9.9c-35.3,0-64-28.7-64-64s28.7-64,64-64s64,28.7,64,64c0,17-6.6,33-18.6,45.1l11.4,11.3
				c15-15.1,23.2-35.1,23.2-56.4C296,291.9,260.1,256,216,256z"/>
			<path d="M216,288c-26.5,0-48,21.5-48,48s21.5,48,48,48s48-21.5,48-48S242.5,288,216,288z M216,368c-17.6,0-32-14.4-32-32
				s14.4-32,32-32s32,14.4,32,32S233.6,368,216,368z"/>
		</g>
	</g>
</g>
</svg>
