<?xml version="1.0" encoding="iso-8859-1"?>
<!-- Generator: Adobe Illustrator 19.0.0, SVG Export Plug-In . SVG Version: 6.00 Build 0)  -->
<svg version="1.1" id="Capa_1" xmlns="http://www.w3.org/2000/svg" xmlns:xlink="http://www.w3.org/1999/xlink" x="0px" y="0px"
	 viewBox="0 0 512 512" style="enable-background:new 0 0 512 512;" xml:space="preserve">
<g>
	<g>
		<path d="M509,394.292l-76.955-57.716c-5.954-4.466-13.789-5.172-20.445-1.844c-0.666,0.333-1.3,0.708-1.914,1.106l-58.009-43.506
			v-12.798h43.048c11.551,0,21.313-8.27,23.212-19.664l20.771-124.627h1.663c4.142,0,7.5-3.358,7.5-7.5c0-4.142-3.358-7.5-7.5-7.5
			h-88.178c-6.133,0-11.859,1.765-16.707,4.805c-1.342-11.71-11.309-20.837-23.373-20.837H52.846
			c-10.567,0-20.503,4.115-27.977,11.588L2.197,138.472c-2.929,2.929-2.929,7.678,0,10.606l24.048,24.048
			c1.464,1.464,3.384,2.197,5.303,2.197c1.919,0,3.839-0.732,5.303-2.197l21.852-21.852h101.62v17.064H95.677
			c-8.556,0-15.516,6.96-15.516,15.516v80.677h-0.516c-8.556,0-15.516,6.96-15.516,15.516v56.394
			c-9.72,7.216-16.032,18.775-16.032,31.783c0,21.816,17.749,39.565,39.564,39.565c19.251,0,35.327-13.824,38.842-32.065h135.254
			c8.879,18.923,28.107,32.065,50.355,32.065c26.703,0,49.063-18.926,54.387-44.067l34.307,17.153v7.389
			c0,10.766,8.758,19.524,19.524,19.524h84.17c3.228,0,6.094-2.066,7.115-5.128C512.636,399.601,511.583,396.229,509,394.292z
			 M407.297,232.469h-39.071c-0.285,0-0.516-0.231-0.516-0.516v-64.645h50.448L407.297,232.469z M335.645,151.792L335.645,151.792
			c0-9.125,7.423-16.549,16.548-16.549h71.308l-2.844,17.065H360.21c-4.142,0-7.5,3.358-7.5,7.5v72.145
			c0,8.556,6.96,15.516,15.516,15.516h36.571l-1.656,9.935c-0.688,4.131-4.228,7.129-8.416,7.129h-59.08V151.792z M55.597,136.276
			c-1.989,0-3.897,0.79-5.303,2.197l-18.745,18.745l-13.442-13.442l17.37-17.37c4.64-4.64,10.809-7.195,17.37-7.195h107.477v17.065
			H55.597z M87.661,392.792c-13.545,0-24.564-11.02-24.564-24.565c0-13.545,11.02-24.564,24.564-24.564s24.564,11.02,24.564,24.564
			S101.206,392.792,87.661,392.792z M257.172,360.727H126.504c-3.516-18.24-19.591-32.064-38.842-32.064
			c-2.93,0-5.782,0.33-8.532,0.937v-49.55c0-0.285,0.231-0.516,0.516-0.516h24.048c4.142,0,7.5-3.358,7.5-7.5
			c0-4.142-3.358-7.5-7.5-7.5h-8.532v-80.677c0-0.285,0.231-0.516,0.516-0.516H280.05c4.142,0,7.5-3.358,7.5-7.5
			c0-4.142-3.358-7.5-7.5-7.5H175.323v-49.13h136.79c4.705,0,8.532,3.828,8.532,8.532v24.049v16.548h-8.536
			c-4.142,0-7.5,3.358-7.5,7.5c0,4.142,3.358,7.5,7.5,7.5h8.536v81.193H135.76c-4.142,0-7.5,3.358-7.5,7.5
			c0,4.142,3.358,7.5,7.5,7.5h200.917v22.803c-7.413-3.667-15.75-5.738-24.564-5.738c-30.656,0-55.597,24.94-55.597,55.597
			C256.516,355.096,256.741,357.945,257.172,360.727z M312.113,392.792c-22.385,0-40.597-18.212-40.597-40.597
			s18.211-40.597,40.597-40.597s40.597,18.211,40.597,40.597S334.498,392.792,312.113,392.792z M400.807,352.195v11.913
			l-33.314-16.656c-1.13-13.301-6.954-25.281-15.816-34.268v-2.102l49.533,37.149C400.947,349.517,400.807,350.843,400.807,352.195z
			 M420.331,392.792c-2.495,0-4.524-2.03-4.524-4.524v-36.073c0-2.523,1.749-3.67,2.501-4.046c0.403-0.202,1.154-0.499,2.076-0.499
			c0.798,0,1.725,0.223,2.662,0.926L482,392.792H420.331z"/>
	</g>
</g>
<g>
	<g>
		<path d="M328.145,344.695c-4.142,0-7.5,3.358-7.5,7.5c0,4.705-3.828,8.532-8.532,8.532c-4.704,0-8.532-3.828-8.532-8.532
			c0-3.037,1.637-5.871,4.271-7.395c3.585-2.074,4.811-6.662,2.737-10.248c-2.074-3.586-6.663-4.811-10.248-2.737
			c-7.254,4.196-11.76,12.005-11.76,20.379c0,12.976,10.557,23.532,23.532,23.532c12.975,0,23.532-10.557,23.532-23.532
			C335.645,348.053,332.287,344.695,328.145,344.695z"/>
	</g>
</g>
<g>
	<g>
		<path d="M87.741,360.727h-0.08c-4.142,0-7.46,3.358-7.46,7.5c0,4.142,3.398,7.5,7.54,7.5c4.142,0,7.5-3.358,7.5-7.5
			C95.241,364.085,91.883,360.727,87.741,360.727z"/>
	</g>
</g>
<g>
	<g>
		<path d="M231.952,328.662h-96.193c-4.142,0-7.5,3.358-7.5,7.5c0,4.142,3.358,7.5,7.5,7.5h96.193c4.142,0,7.5-3.358,7.5-7.5
			C239.452,332.02,236.094,328.662,231.952,328.662z"/>
	</g>
</g>
<g>
	<g>
		<path d="M167.823,232.469h-48.097c-4.142,0-7.5,3.358-7.5,7.5c0,4.142,3.358,7.5,7.5,7.5h48.097c4.142,0,7.5-3.358,7.5-7.5
			C175.323,235.827,171.965,232.469,167.823,232.469z"/>
	</g>
</g>
<g>
	<g>
		<path d="M167.823,200.405h-48.097c-4.142,0-7.5,3.358-7.5,7.5c0,4.142,3.358,7.5,7.5,7.5h48.097c4.142,0,7.5-3.358,7.5-7.5
			C175.323,203.763,171.965,200.405,167.823,200.405z"/>
	</g>
</g>
<g>
</g>
<g>
</g>
<g>
</g>
<g>
</g>
<g>
</g>
<g>
</g>
<g>
</g>
<g>
</g>
<g>
</g>
<g>
</g>
<g>
</g>
<g>
</g>
<g>
</g>
<g>
</g>
<g>
</g>
</svg>
