<?xml version="1.0" encoding="UTF-8" standalone="no"?>
<svg
   xmlns:dc="http://purl.org/dc/elements/1.1/"
   xmlns:cc="http://creativecommons.org/ns#"
   xmlns:rdf="http://www.w3.org/1999/02/22-rdf-syntax-ns#"
   xmlns:svg="http://www.w3.org/2000/svg"
   xmlns="http://www.w3.org/2000/svg"
   height="31.329996"
   width="214.99001"
   xml:space="preserve"
   viewBox="0 0 214.99001 31.329997"
   y="0px"
   x="0px"
   id="Слой_1"
   version="1.1"><metadata
   id="metadata27"><rdf:RDF><cc:Work
       rdf:about=""><dc:format>image/svg+xml</dc:format><dc:type
         rdf:resource="http://purl.org/dc/dcmitype/StillImage" /><dc:title></dc:title></cc:Work></rdf:RDF></metadata><defs
   id="defs25" />
<style
   id="style2"
   type="text/css">
	.st0{fill:#359444;}
</style>
<g
   transform="translate(-128.34,-68.12)"
   id="g20">
	<polygon
   id="polygon4"
   points="138.4,87.33 151.52,87.33 151.52,80.13 138.4,80.13 138.4,75.63 153.66,75.63 153.66,68.12 128.34,68.12 128.34,99.44 138.4,99.44 " />
	<polygon
   id="polygon6"
   points="323.03,76.13 323.03,99.44 333.09,99.44 333.09,76.13 343.33,76.13 343.33,68.12 312.74,68.12 312.74,76.13 " />
	<rect
   style="fill:#359444"
   id="rect8"
   height="7.5"
   width="37.860001"
   class="st0"
   y="80.129997"
   x="194.13" />
	<path
   id="path10"
   d="m 182.38,86.34 c 1.98,-0.74 3.48,-1.88 4.51,-3.42 1.03,-1.55 1.55,-3.28 1.55,-5.19 0,-1.73 -0.4,-3.33 -1.21,-4.81 -0.8,-1.47 -2.01,-2.64 -3.6,-3.5 -1.59,-0.87 -3.51,-1.29 -5.75,-1.29 h -19.17 v 31.31 h 10.06 V 88.02 h 3.74 l 5.55,11.42 h 11.29 z m -5.01,-6.13 c -0.54,0.56 -1.21,0.85 -2,0.85 h -6.6 v -5.79 h 6.6 c 0.79,0 1.46,0.27 2,0.82 0.55,0.55 0.83,1.23 0.83,2.04 0,0.83 -0.28,1.52 -0.83,2.08 z" />
	<rect
   style="fill:#359444"
   id="rect12"
   height="7.5"
   width="41.799999"
   class="st0"
   y="68.32"
   x="194.13" />
	<rect
   style="fill:#359444"
   id="rect14"
   height="7.5"
   width="41.799999"
   class="st0"
   y="91.949997"
   x="194.13" />
	<polygon
   id="polygon16"
   points="241.71,68.12 241.71,99.44 250.96,99.44 250.96,84.24 264.11,99.44 272.9,99.44 272.9,68.12 263.66,68.12 263.66,83.55 250.5,68.12 " />
	<path
   id="path18"
   d="m 293.21,68.13 h -13.57 v 31.31 h 13.57 c 10.95,0 16.43,-5.22 16.43,-15.66 0,-10.44 -5.48,-15.65 -16.43,-15.65 z m 6.14,17.02 c 0,4.53 -2.11,6.78 -6.33,6.78 h -3.32 v -16.3 h 3.32 c 4.22,0 6.33,2.26 6.33,6.79 z" />
</g>
</svg>