<?xml version="1.0" encoding="utf-8"?>
<!-- Generator: Adobe Illustrator 23.0.3, SVG Export Plug-In . SVG Version: 6.00 Build 0)  -->
<svg version="1.1" id="Capa_1" xmlns="http://www.w3.org/2000/svg" xmlns:xlink="http://www.w3.org/1999/xlink" x="0px" y="0px"
	 viewBox="0 0 512 512" style="enable-background:new 0 0 512 512;" xml:space="preserve">
<style type="text/css">
	.st0{fill:#00953B;}
	.st1{fill:#292929;}
</style>
<g>
	<path class="st0" d="M255.2,170.8c8.7,4.7,14.8,6.2,22.4,6.6v4.6c0,4.1,3.4,7.5,7.5,7.5s7.5-3.4,7.5-7.5v-5.2
		c16-2.9,25.7-14.5,27.3-26c1.9-13.4-6.7-24.8-21.8-29.2c-9.6-2.8-20.1-6.2-26.3-10.1c-2.9-1.8-2.8-4.8-2.6-6.4
		c0.6-3.4,3.3-7.5,9.4-9c13.3-3.3,21.9,2.6,22.4,3c3.3,2.5,8,1.8,10.4-1.5c2.5-3.3,1.9-8-1.4-10.5c-0.4-0.3-6.9-5.1-17.5-6.6v-4
		c0-4.1-3.4-7.5-7.5-7.5s-7.5,3.4-7.5,7.5V81c-0.8,0.2-1.7,0.3-2.5,0.5c-10.8,2.7-18.9,11-20.6,21.1c-1.4,8.6,2.1,16.9,9.2,21.5
		c6.2,4,15,7.5,30.2,11.9c7.9,2.3,12,7,11.1,12.8c-1.2,8.9-11.2,13.7-20,13.8c-10.1,0.1-14.1-0.3-22.7-4.9c-3.6-2-8.2-0.6-10.2,3
		C250.2,164.2,251.5,168.8,255.2,170.8L255.2,170.8z"/>
	<path class="st1" d="M503,277.3c-9.7-12.4-25.2-18-39.9-15.6c-13.4-15-35.9-18.5-53.4-8l-3,1.7c-13.6-12.3-34.1-14.6-50.2-4.9
		l-87.7,50.9l-29.8-3.7l41.5-29.7c6.3-4.5,11.1-10.6,14.1-17.5c29.7-2.2,57.3-15,78.2-36.5c22.1-22.8,34.3-52.8,34.3-84.6
		c0-67-54.5-121.5-121.5-121.5c-24.4,0-48,7.2-68.2,20.9c-3.4,2.3-4.3,7-2,10.4c2.3,3.4,7,4.3,10.4,2c17.7-12,38.3-18.3,59.7-18.3
		c58.7,0,106.5,47.8,106.5,106.5c0,27.8-10.7,54.2-30.1,74.2c-17.2,17.7-39.7,28.8-63.9,31.6c0-0.5,0-1,0-1.4c0-2.8-0.3-5.7-0.9-8.4
		c-0.9-4.2-2.3-8.2-4.2-11.8c43.1-3.8,77-40.1,77-84.1c0-46.6-37.9-84.5-84.5-84.5c-46.6,0-84.5,37.9-84.5,84.5
		c0,25.7,11.8,49.8,31.3,65.6c-8.5,1.7-16.9,3.9-25.2,6.5c-18.2-19.7-28.1-45.1-28.1-72.1c0-25.6,9.2-50.4,26-69.7
		c2.7-3.1,2.4-7.9-0.8-10.6c-3.1-2.7-7.9-2.4-10.6,0.8c-19.1,22.1-29.7,50.3-29.7,79.6c0,28.6,9.8,55.6,27.8,77.4
		c-23.7,9-46.1,21.4-66.3,36.9L74.3,283L3.5,328.3c-3.4,2.2-4.5,6.6-2.5,10.1l93.3,162.1c1,1.8,2.7,3.1,4.7,3.5
		c0.6,0.1,1.2,0.2,1.8,0.2c1.4,0,2.8-0.4,4-1.2l69.7-44.5l218.4-27.8c13.8-1.8,26.5-8.4,35.8-18.7l72.5-80.3
		c7-7.8,10.9-17.9,10.9-28.3C512,294,508.8,284.7,503,277.3L503,277.3z M364.1,263.4c0,0,0.1,0,0.1-0.1c8.9-5.4,20-5.1,28.5,0.2
		l-75.6,43.9l-23.7-3L364.1,263.4z M216.2,129.2c0-38.3,31.2-69.5,69.5-69.5c38.3,0,69.5,31.2,69.5,69.5c0,38.3-31.2,69.5-69.5,69.5
		c-2,0-4-0.1-6.1-0.3c-7.2-4.9-15.9-7.5-25.1-7.1C231.2,179.6,216.2,155.4,216.2,129.2L216.2,129.2z M103.3,486.2L17.6,337.1
		L76,299.8l85.8,149.1L103.3,486.2z M490,321.7L417.5,402c-6.9,7.6-16.3,12.6-26.5,13.9l-215.1,27.4L88.3,291.2l46.5-35.8
		c31.3-24.1,68.5-40.4,107.4-47.2l9-1.6c14.6-2.5,28.4,6.9,31.4,21.4c0.4,1.8,0.6,3.6,0.6,5.5c0,8.8-4.3,17.1-11.4,22.2l-57.1,40.9
		c-2.5,1.8-3.7,5-2.9,7.9s3.3,5.2,6.3,5.6l153.1,19.1c1.7,0.2,3.4-0.2,4.8-1l30.2-18.3c3.5-2.1,4.7-6.8,2.5-10.3
		c-2.1-3.5-6.8-4.7-10.3-2.5l-28,17l-28.9-3.6l75.6-43.9c0,0,0.1-0.1,0.1-0.1c9.5-5.7,21.2-5.1,29.8,1l-23.1,14
		c-3.5,2.1-4.7,6.8-2.5,10.3s6.8,4.7,10.3,2.5l23.6-14.3c11.8-7.1,27.1-4.4,35.6,6.5c3.8,4.8,5.8,10.7,5.8,16.8
		C497,310.2,494.5,316.7,490,321.7L490,321.7z"/>
	<path d="M116.4,418.7c-12.6,0-22.8,10.2-22.8,22.8s10.2,22.8,22.8,22.8s22.8-10.2,22.8-22.8S128.9,418.7,116.4,418.7z M116.4,449.3
		c-4.3,0-7.8-3.5-7.8-7.8s3.5-7.8,7.8-7.8s7.8,3.5,7.8,7.8S120.7,449.3,116.4,449.3z"/>
	<path class="st0" d="M101.5,151.6c0.5,0,0.9,0,1.4,0l20.3-1.4c10.5-0.7,18.7-9.5,18.7-20v-1.9c0-10.5-8.2-19.3-18.7-20l-20.3-1.4
		c-5.5-0.4-11,1.6-15.1,5.3s-6.4,9.1-6.4,14.7v4.7c0,5.5,2.3,10.9,6.4,14.7C91.5,149.7,96.5,151.6,101.5,151.6L101.5,151.6z
		 M96.4,126.9c0-1.4,0.6-2.7,1.6-3.7c0.9-0.9,2.2-1.4,3.4-1.4c0.1,0,0.2,0,0.4,0l20.3,1.4c2.6,0.2,4.7,2.4,4.7,5v1.9
		c0,2.6-2.1,4.9-4.7,5l-20.3,1.4c-1.4,0.1-2.8-0.4-3.8-1.3c-1-1-1.6-2.3-1.6-3.7V126.9z"/>
	<path class="st0" d="M156.4,184.7c-5.2-9.1-16.8-12.6-26.2-8l-18.2,8.9c-5,2.4-8.8,6.9-10.4,12.2c-1.6,5.3-1,11.1,1.8,15.9l2.3,4
		c2.8,4.8,7.4,8.3,12.8,9.5c1.5,0.3,3,0.5,4.5,0.5c4,0,7.9-1.2,11.2-3.4l16.8-11.3c8.7-5.9,11.4-17.6,6.2-26.7L156.4,184.7z
		 M142.8,200.6L126,211.9c-1.2,0.8-2.6,1.1-4,0.7c-1.4-0.3-2.5-1.2-3.2-2.4l-2.3-4c-0.7-1.2-0.9-2.6-0.5-4c0.4-1.4,1.3-2.4,2.6-3.1
		l18.2-8.9c0.7-0.3,1.5-0.5,2.2-0.5c1.8,0,3.5,0.9,4.4,2.5v0l0.9,1.6C145.7,196.2,145,199.1,142.8,200.6L142.8,200.6z"/>
	<path class="st0" d="M112,72.8l18.2,8.9c2.8,1.4,5.8,2,8.8,2c7,0,13.7-3.6,17.4-10l0.9-1.6v0c5.3-9.1,2.5-20.8-6.2-26.7l-16.8-11.3
		c-4.6-3.1-10.3-4.1-15.7-2.9c-5.4,1.2-10.1,4.7-12.8,9.5l-2.3,4c-2.8,4.8-3.4,10.6-1.8,15.9C103.3,65.9,107,70.3,112,72.8L112,72.8
		z M116.5,52.2l2.3-4c0.7-1.2,1.9-2.1,3.2-2.4c0.4-0.1,0.8-0.1,1.2-0.1c1,0,2,0.3,2.8,0.9l16.8,11.3c2.2,1.5,2.9,4.4,1.6,6.7
		l-0.9,1.6c-1.3,2.3-4.2,3.2-6.6,2l-18.2-8.9c-1.3-0.6-2.2-1.7-2.6-3.1C115.6,54.9,115.7,53.5,116.5,52.2z"/>
	<path class="st0" d="M468.5,106.9l-20.3,1.4c-10.5,0.7-18.7,9.5-18.7,20v1.9c0,10.5,8.2,19.3,18.7,20l20.3,1.4c0.5,0,0.9,0,1.4,0
		c5.1,0,10-1.9,13.7-5.4c4-3.8,6.4-9.1,6.4-14.7v-4.7c0-5.5-2.3-10.9-6.4-14.7C479.5,108.5,474,106.5,468.5,106.9L468.5,106.9z
		 M474.9,126.9v4.6c0,1.4-0.6,2.7-1.6,3.7c-1,1-2.4,1.4-3.8,1.3l-20.3-1.4c-2.6-0.2-4.7-2.4-4.7-5v-1.9c0-2.6,2.1-4.9,4.7-5
		l20.3-1.4c0.1,0,0.2,0,0.4,0c1.3,0,2.5,0.5,3.4,1.4C474.4,124.2,474.9,125.5,474.9,126.9L474.9,126.9z"/>
	<path class="st0" d="M420.2,213l16.8,11.3c3.3,2.2,7.3,3.4,11.2,3.4c1.5,0,3-0.2,4.5-0.5c5.4-1.2,10.1-4.7,12.8-9.5l2.3-4
		c2.8-4.8,3.4-10.6,1.8-15.9c-1.6-5.3-5.4-9.7-10.4-12.2l-18.2-8.9c-9.4-4.6-20.9-1.1-26.2,8l-0.9,1.6
		C408.8,195.5,411.5,207.2,420.2,213L420.2,213z M427,193.9l0.9-1.6c1.3-2.3,4.2-3.2,6.6-2l18.2,8.9c1.3,0.6,2.2,1.7,2.6,3.1
		s0.3,2.8-0.5,4l-2.3,4c-0.7,1.2-1.9,2.1-3.2,2.4c-1.4,0.3-2.8,0.1-4-0.7l-16.8-11.3C426.4,199.1,425.7,196.2,427,193.9L427,193.9z"
		/>
	<path class="st0" d="M414.9,73.7c3.7,6.4,10.5,10,17.4,10c3,0,6-0.7,8.8-2l18.2-8.9c5-2.4,8.8-6.9,10.4-12.2s1-11.1-1.8-15.9
		l-2.3-4c-2.8-4.8-7.4-8.3-12.8-9.5c-5.4-1.2-11.1-0.2-15.7,2.9l-16.8,11.3c-8.7,5.9-11.4,17.6-6.2,26.7L414.9,73.7z M428.6,57.9
		l16.8-11.3c0.8-0.6,1.8-0.9,2.8-0.9c0.4,0,0.8,0,1.2,0.1c1.4,0.3,2.5,1.2,3.2,2.4l2.3,4c0.7,1.2,0.9,2.6,0.5,4s-1.3,2.4-2.6,3.1
		l-18.2,8.9c-2.4,1.2-5.3,0.3-6.6-2l-0.9-1.6v0C425.7,62.3,426.4,59.4,428.6,57.9L428.6,57.9z"/>
</g>
</svg>
