<?xml version="1.0" encoding="utf-8"?>
<!-- Generator: Adobe Illustrator 23.0.3, SVG Export Plug-In . SVG Version: 6.00 Build 0)  -->
<svg version="1.1" id="Слой_1" xmlns="http://www.w3.org/2000/svg" xmlns:xlink="http://www.w3.org/1999/xlink" x="0px" y="0px"
	 viewBox="0 0 512 512" style="enable-background:new 0 0 512 512;" xml:space="preserve">
<style type="text/css">
	.st0{fill:#242424;}
	.st1{fill:#00953B;}
</style>
<g id="Out_line">
	<path class="st0" d="M256,376c13.3,0,24-10.7,24-24s-10.7-24-24-24c-13.3,0-24,10.7-24,24C232,365.2,242.8,376,256,376z M256,344
		c4.4,0,8,3.6,8,8s-3.6,8-8,8s-8-3.6-8-8C248,347.6,251.6,344,256,344z"/>
	<path class="st1" d="M336,368.1l44.2,33.7c9.8,19.8,33.8,27.9,53.6,18c19.8-9.8,27.9-33.8,18-53.6c-8.3-16.7-27-25.4-45.1-21.1
		L336,292v-36c0-2.1-0.8-4.2-2.3-5.7L312,228.7v-7.7l27.6-13.8c2.7-1.4,4.4-4.1,4.4-7.2v-28.7l52.9-28.9
		c21.2,6.1,43.4-6.1,49.5-27.4c6.1-21.2-6.1-43.4-27.4-49.5s-43.4,6.1-49.5,27.4c-0.7,2.3-1.1,4.6-1.4,6.9L312,130.5V128
		c0-4.4-3.6-8-8-8h-96c-4.4,0-8,3.6-8,8v2.5l-56.2-30.7c-2.3-22-21.9-38-43.9-35.7c-22,2.3-38,21.9-35.7,43.9s21.9,38,43.9,35.7
		c2.4-0.2,4.7-0.7,7-1.4l52.9,28.9V200c0,3,1.7,5.8,4.4,7.2l27.6,13.8v7.7l-21.7,21.7c-1.5,1.5-2.3,3.5-2.3,5.7v36.2l-64.2,52.6
		c-21.7-4.3-42.7,9.8-47,31.5s9.8,42.7,31.5,47c18.9,3.8,37.9-6.6,45-24.5l34.8-29.5V392c0,4.4,3.6,8,8,8h144c4.4,0,8-3.6,8-8V368.1
		z M440,384c0,13.3-10.7,24-24,24s-24-10.7-24-24s10.7-24,24-24C429.2,360,440,370.8,440,384z M390.7,353
		c-7.9,6.4-13,15.6-14.4,25.7L336,348v-36L390.7,353z M328,195.1l-16,8v-46.1l16,8V195.1z M341.6,154.4c-0.6-0.6-1.3-1.1-2.1-1.5
		l-18.3-9.2l48.9-26.7c2.1,6.1,5.7,11.6,10.4,16.1L341.6,154.4z M408,80c13.3,0,24,10.7,24,24s-10.7,24-24,24s-24-10.7-24-24
		C384,90.8,394.8,80,408,80z M80,104c0-13.3,10.7-24,24-24s24,10.7,24,24s-10.7,24-24,24C90.8,128,80,117.2,80,104z M141.8,117
		l48.9,26.7l-18.3,9.2c-0.8,0.4-1.5,0.9-2.1,1.5l-39-21.3C136.1,128.7,139.7,123.1,141.8,117z M184,195.1v-30.1l16-8v46.1L184,195.1
		z M104,408c-13.3,0-24-10.7-24-24s10.7-24,24-24s24,10.7,24,24C128,397.2,117.2,408,104,408z M143.2,376c-2-9.6-7.3-18.1-15.1-24
		l47.9-39.2v35.4L143.2,376z M288,384h-64v-64h64V384z M304,384v-72c0-4.4-3.6-8-8-8h-80c-4.4,0-8,3.6-8,8v72h-16V259.3l21.7-21.7
		c1.5-1.5,2.3-3.5,2.3-5.7v-96h80v96c0,2.1,0.8,4.2,2.3,5.7l21.7,21.7V272H208v16h112v96H304z"/>
	<path class="st0" d="M472,104c0-35.4-28.7-64-64-64c-28.3,0-53.2,18.6-61.3,45.7l15.3,4.6c7.6-25.4,34.3-39.8,59.7-32.2
		c25.4,7.6,39.8,34.3,32.2,59.7c-6.8,22.8-29.3,37.1-52.8,33.7l-2.3,15.8c35,5,67.5-19.3,72.5-54.3C471.8,110.1,472,107,472,104z"/>
	<path class="st0" d="M359.5,50.8C389,24,434.5,26.2,461.2,55.6s24.5,74.9-4.9,101.7c-18.9,17.2-45.5,23-69.9,15.4l-4.8,15.3
		c46.4,14.6,95.8-11.2,110.4-57.6s-11.2-95.8-57.6-110.4S338.6,31.2,324,77.6c-1.8,5.7-3,11.6-3.6,17.6l15.9,1.6
		C338.1,79.1,346.4,62.7,359.5,50.8z"/>
	<path class="st0" d="M104,40c-35.3,0-64,28.7-64,64s28.7,64,64,64c3,0,6-0.2,9-0.6l-2.3-15.8c-2.3,0.3-4.6,0.5-6.9,0.5
		c-26.5,0-48-21.5-48-48c0-26.5,21.5-48,48-48c21.2,0,39.9,13.9,46,34.3l15.3-4.6C157.2,58.7,132.3,40.1,104,40z"/>
	<path class="st0" d="M104,192c9,0,17.9-1.4,26.4-4l-4.8-15.3c-37.9,11.9-78.4-9.1-90.3-47.1s9.1-78.4,47.1-90.3s78.4,9.1,90.3,47.1
		c1.5,4.7,2.5,9.5,3,14.4l15.9-1.6c-4.9-48.4-48-83.6-96.4-78.8s-83.6,48-78.8,96.4C21,157.8,58.8,192,104,192z"/>
	<path class="st0" d="M104,448c20.9,0,40.5-10.3,52.5-27.4l-13.1-9.2c-15.1,21.8-45.1,27.1-66.8,12c-21.8-15.1-27.1-45.1-12-66.8
		c9-12.9,23.7-20.6,39.4-20.6v-16c-35.3,0-64,28.7-64,64S68.7,448,104,448z"/>
	<path class="st0" d="M104,456c-39.8,0-72-32.3-71.9-72.1s32.3-72,72.1-71.9c4.8,0,9.6,0.5,14.3,1.4l3.2-15.7
		c-47.6-9.7-94.1,21-103.8,68.7s21,94.1,68.7,103.8c40.7,8.3,81.6-13,98.2-51l-14.7-6.4C158.6,439,132.6,456,104,456z"/>
	<path class="st0" d="M464,384c0,26.5-21.5,48-48,48c-15.7,0-30.4-7.7-39.4-20.6l-13.1,9.2c20.2,29,60.1,36.1,89.1,15.9
		s36.1-60.1,15.9-89.1c-12-17.2-31.6-27.4-52.5-27.4v16C442.5,336,464,357.5,464,384z"/>
	<path class="st0" d="M416,296c-5.9,0-11.8,0.6-17.6,1.8l3.2,15.7c39-7.9,77,17.2,84.9,56.2c7.9,39-17.2,77-56.2,84.9
		c-33.3,6.8-66.8-10.6-80.4-41.8l-14.7,6.4c19.4,44.6,71.3,64.9,115.9,45.5s64.9-71.3,45.5-115.9C482.7,316.7,451,296,416,296z"/>
</g>
</svg>
