<?xml version="1.0" encoding="utf-8"?>
<!-- Generator: Adobe Illustrator 23.0.3, SVG Export Plug-In . SVG Version: 6.00 Build 0)  -->
<svg version="1.1" id="Слой_1" xmlns="http://www.w3.org/2000/svg" xmlns:xlink="http://www.w3.org/1999/xlink" x="0px" y="0px"
	 viewBox="0 0 512 512" style="enable-background:new 0 0 512 512;" xml:space="preserve">
<style type="text/css">
	.st0{fill:#00953B;}
	.st1{fill:#292929;}
</style>
<path class="st0" d="M187.2,318.4h-30c-9.4,0-17-7.6-17-17v-16.7c0-1-0.7-1.8-1.7-2.1c-10.4-2.8-20.4-7-29.8-12.4
	c-0.9-0.5-1.9-0.4-2.5,0.2l-12,12c-3.2,3.2-7.5,5-12,5c-4.5,0-8.8-1.8-12-5L49,261.2c-3.2-3.2-5-7.5-5-12c0-4.5,1.8-8.8,5-12
	l11.9-12c0.6-0.6,0.7-1.6,0.2-2.5c-5.4-9.4-9.6-19.4-12.4-29.8c-0.3-1-1.1-1.7-2.1-1.7H30c-9.4,0-17-7.6-17-17v-30
	c0-9.4,7.6-17,17-17h16.7c1,0,1.8-0.7,2.1-1.7c2.8-10.4,7-20.4,12.4-29.8c0.5-0.9,0.4-1.9-0.2-2.5l-12-12c-3.2-3.2-5-7.5-5-12
	c0-4.5,1.8-8.8,5-12L70.3,36c3.2-3.2,7.5-5,12-5s8.8,1.8,12,5L106.2,48c0.6,0.6,1.6,0.7,2.5,0.2c9.4-5.4,19.4-9.6,29.8-12.4
	c1-0.3,1.7-1.1,1.7-2.1V17c0-9.4,7.6-17,17-17h30c9.4,0,17,7.6,17,17v16.7c0,1,0.7,1.8,1.7,2.1c10.4,2.8,20.4,7,29.8,12.4
	c0.9,0.5,1.9,0.4,2.5-0.2l11.9-12c6.6-6.6,17.4-6.6,24,0l2.2,2.2c7,7-3.6,17.6-10.6,10.6c-1.4-1.2-3.2-4.1-5-2.2l-12,11.9
	c-5.4,5.4-13.9,6.5-20.6,2.6c-8.3-4.8-17.1-8.4-26.3-10.9c-7.5-2.1-12.8-8.9-12.8-16.6V17c0-1.1-0.9-2-2-2h-30c-1.1,0-2,0.9-2,2
	v16.7c0,7.7-5.3,14.5-12.8,16.6c-9.2,2.5-18,6.2-26.3,10.9c-6.7,3.8-15.2,2.8-20.6-2.6L83.6,46.6c-0.5-0.5-1-0.6-1.4-0.6
	s-0.9,0.1-1.4,0.6L59.6,67.9c-0.5,0.5-0.6,1-0.6,1.4c0,0.4,0.1,0.9,0.6,1.4l12,12c5.4,5.4,6.5,13.9,2.6,20.6
	c-4.8,8.3-8.4,17.1-10.9,26.3c-2.1,7.5-8.9,12.8-16.6,12.8H30c-1.1,0-2,0.9-2,2v30c0,1.1,0.9,2,2,2h16.7c7.7,0,14.5,5.3,16.6,12.8
	c2.5,9.2,6.2,18,10.9,26.3c3.8,6.7,2.8,15.2-2.6,20.6l-11.9,12c-0.5,0.5-0.6,1-0.6,1.4c0,0.4,0.1,0.9,0.6,1.4l21.2,21.2
	c0.8,0.8,2,0.8,2.8,0l11.9-11.9c5.4-5.4,13.9-6.5,20.6-2.6c8.3,4.8,17.1,8.4,26.3,10.9c7.5,2.1,12.8,8.9,12.8,16.6v16.7
	c0,1.1,0.9,2,2,2h30c1.1,0,2-0.9,2-2v-16.7c0-7.7,5.3-14.6,12.8-16.6c9.6-2.6,13.5,11.9,3.9,14.5c-1,0.3-1.7,1.1-1.7,2.1v16.7
	C204.2,310.8,196.6,318.4,187.2,318.4z"/>
<path class="st0" d="M101.5,159.2c0-49.6,49.9-83.6,95.8-66.1c9.3,3.5,3.9,17.6-5.3,14c-36.3-13.8-75.5,13.1-75.5,52.1
	c0,31.7,26.7,57.5,59,55.6c9.9-0.6,10.8,14.4,0.9,15C135.7,232.2,101.5,199.7,101.5,159.2z"/>
<path class="st1" d="M428,333.1l-76-14.8v-18.8c21.3-14.6,32.9-35.2,35.4-58.3c11.1-0.9,19.8-10.2,19.8-21.5v-15.4
	c18.1-7.9,15.6-34.2-3.5-38.7v-5.9c0-53.5-43.4-96.9-96.8-96.9h-8.1c-53.5,0-96.8,43.4-96.8,96.8v6c-19.1,4.4-21.6,30.8-3.5,38.7
	v15.4c0,11.3,8.7,20.6,19.8,21.5c2.2,20.2,11.7,38.7,26.6,51.6c2.9,2.5,5.8,4.7,8.8,6.8v18.8l-76,14.8
	c-40.1,7.8-71.3,30.4-71.3,72.1v76.3c0,16.9,13.7,30.6,30.6,30.6h331.9c16.9,0,30.6-13.7,30.6-30.6v-76.3
	C499.4,363.6,468.3,340.9,428,333.1z M365.6,336.2c-5.4,7.9-13.8,20-22.8,33c-3.7,5.3-10.2,6-12.8,4.4l-11.8-7.1
	c11.6-6.8,27.5-18.5,32.4-33.3L365.6,336.2z M302.9,357.8c-11.4-5.7-34.1-19.9-34.2-33.3c0,0,0,0,0-0.1v-16.7
	c21.8,9.4,46.5,9.4,68.3,0v16.7C337,337.9,314.3,352.1,302.9,357.8z M217,159.7c0-30.8,17.1-57.6,42.2-71.6v9.4c0,9.9,15,9.9,15,0
	V81.6c6.7-2.1,13.8-3.4,21.2-3.7V115c0,9.9,15,9.9,15,0V77.9c7.4,0.3,14.5,1.6,21.2,3.7v15.9c0,9.9,15,9.9,15,0v-9.4
	c25.2,14,42.2,40.8,42.2,71.6v5.4H217V159.7z M206.6,180.1h192.6c7.2,0,7.2,10.9,0,10.9H206.6C199.4,191,199.4,180.1,206.6,180.1z
	 M232.8,233.6c-0.1-4.1-3.4-7.3-7.5-7.3c-1.3-0.3-11.8,1.9-11.8-6.5V206h178.8v13.7c0,8.5-10.9,6.3-11.8,6.5c-4.1,0-7.4,3.3-7.5,7.3
	c-0.4,18.8-8.4,36.2-21.9,47.8c-28.6,24.7-67.7,24.7-96.4,0C241.2,269.7,233.2,252.3,232.8,233.6z M255.2,333.3
	c4.9,14.7,20.8,26.5,32.4,33.3c-11.9,6.4-11,8.3-16.4,7.6c-3.4-0.4-6.4-2.3-8.3-5.1c-9-13-17.3-25-22.7-32.9L255.2,333.3z
	 M168.6,497h-31.7c-8.6,0-15.6-7-15.6-15.6v-76.3c0-22.5,10.2-38,32.6-48.8c0.9,4,14.6,41.3,14.6,93.4V497z M295.4,497H183.6v-47.2
	c0-56.5-14.3-92.8-15.7-99c8.8-2.9,2.3-0.7,56.1-11.5c15.5,22.5,44.4,64.5,61.4,88.7c6.5,9.2,9.9,20,9.9,31.2V497z M302.9,427.8
	c-1.5-2.9-3.2-5.8-5.1-8.5c-5.8-8.2-13.2-18.9-21-30.2c2.3-0.5,4.6-1.4,6.7-2.7l19.4-11.7l19.4,11.7c2.1,1.3,4.4,2.2,6.7,2.7
	c-7.8,11.2-15.3,22-21,30.2C306.1,422.1,304.4,424.9,302.9,427.8z M484.4,481.4c0,8.6-7,15.6-15.6,15.6h-31.7v-28.3
	c0-9.9-15-9.9-15,0V497H310.4v-37.8c0-11.2,3.4-22,9.9-31.2c9.7-13.8,49.6-71.3,61.4-88.7c53.8,10.8,47.3,8.6,56.1,11.5
	c-1.1,4.6-13.7,38.9-15.5,87.6c-0.4,9.9,14.6,10.4,15,0.5c1.7-47.1,13.2-77.4,14.5-82.5c22.4,10.7,32.6,26.3,32.6,48.7V481.4z"/>
</svg>
