<svg version="1.1" id="Capa_1" xmlns="http://www.w3.org/2000/svg" x="0" y="0" viewBox="0 0 512 512" xml:space="preserve">
    <style>
        .st0{fill:#242424}
    </style>
    <path d="M109.8 496.2l-15-21.2c-3.2-4.5-9.4-5.6-13.9-2.4-4.5 3.2-5.6 9.4-2.4 13.9l15.1 21.2c1.9 2.7 5 4.2 8.2 4.2 2 0 4-.6 5.8-1.8 4.4-3.1 5.4-9.4 2.2-13.9z"/>
    <path class="st0" d="M225.2 499.9l-16.4-78.1c-8-38-30.1-70.8-62.3-92.5l-35-23.5c-14-9.4-32.9-7.4-44.6 4.6V189.9c0-15.8-10.8-29.3-26.2-32.7-10-2.2-20.2.2-28.2 6.6C4.6 170.2 0 179.7 0 189.9V345c0 20.3 6.2 39.8 18 56.4l17.8 25.1c2 2.7 5 4.2 8.2 4.2 2 0 4-.6 5.8-1.8 4.5-3.2 5.6-9.4 2.4-13.9l-17.8-25.1C24.9 376.6 20 361.1 20 345V189.9c0-4.1 1.8-7.9 5-10.5 3.2-2.6 7.3-3.5 11.4-2.6 6.2 1.4 10.6 6.8 10.6 13.2v123c0 17.4 6.4 34 18 46.9.5.6 1 1.2 1.6 1.8 6.6 7 14.4 15.3 21.8 23.1l10.3 11 .1.1c8.8 9.4 15.3 16.3 15.4 16.4 3.8 4 10.1 4.2 14.1.4 4-3.8 4.2-10.1.4-14.1-.2-.2-11.9-12.7-25.3-26.9l-22.9-24.4-.2-.2c-5.4-6.4-5.3-15.8.3-22.1 5-5.6 13.4-6.7 19.7-2.5l35 23.5c27.8 18.7 47 47.1 53.9 80l16.4 78.1c1 4.7 5.1 7.9 9.8 7.9.7 0 1.4-.1 2.1-.2 5.4-1.1 8.8-6.4 7.7-11.9z"/>
    <path d="M74.1 445.9c-3.3-4.6-9.5-5.6-14-2.4s-5.5 9.5-2.3 13.9l.1.1c2 2.7 5 4.2 8.1 4.2 2 0 4-.6 5.8-1.9 4.5-3.2 5.5-9.4 2.3-13.9z"/>
    <path class="st0" d="M499.5 163.8c-8-6.4-18.2-8.8-28.2-6.6-15.4 3.4-26.2 16.9-26.2 32.7v120.5c-11.7-12-30.6-14-44.6-4.6l-35 23.5c-32.2 21.6-54.3 54.5-62.3 92.5l-16.4 78.1c-1.1 5.4 2.3 10.7 7.7 11.8.7.1 1.4.2 2.1.2 4.6 0 8.8-3.2 9.8-7.9l16.4-78.1c6.9-32.8 26-61.2 53.9-80l35-23.5c6.2-4.2 14.7-3.1 19.7 2.5 5.6 6.4 5.7 15.7.3 22.1l-.2.2s-48 51.1-48.2 51.3c-3.8 4-3.6 10.4.4 14.1 4 3.8 10.4 3.6 14.1-.4.1-.1 41-43.6 47.6-50.6.5-.6 1.1-1.2 1.6-1.8 11.6-12.9 18-29.5 18-46.9v-123c0-6.4 4.3-11.8 10.6-13.2 4-.9 8.1.1 11.4 2.6 3.2 2.6 5 6.4 5 10.5V345c0 16.1-4.9 31.6-14.3 44.8l-75.6 106.4c-3.2 4.5-2.1 10.7 2.4 13.9 1.8 1.2 3.8 1.8 5.8 1.8 3.1 0 6.2-1.5 8.2-4.2L494 401.4c11.8-16.6 18-36.1 18-56.4V189.9c0-10.2-4.6-19.7-12.5-26.1z"/>
    <path d="M382.7 191.7l-17.8-4.3v-3.2c11.6-8.1 19.1-21.5 19.1-36.7v-23.1c0-24.7-20.1-44.8-44.8-44.8-11.1 0-21.2 4.1-29 10.7-8.7-21.2-29.7-36.3-54.1-36.3-24.5 0-45.4 15.1-54.1 36.5-7.8-6.7-18-10.8-29.1-10.8-24.7 0-44.8 20.1-44.8 44.8v23.1c0 15.2 7.6 28.6 19.1 36.7v3.2l-17.8 4.3c-21.2 5.1-36.1 23.9-36.1 45.7V256c0 5.5 4.5 10 10 10h46c-.1 1.2-.1 2.4-.1 3.7v36c0 5.5 4.5 10 10 10h60.1c5.5 0 10-4.5 10-10s-4.5-10-10-10H209V275c0-5.5-4.5-10-10-10s-10 4.5-10 10v20.7h-19.8v-26c0-19.3 13.1-35.9 31.9-40.4l27.4-6.6 18.4 41.8c1.6 3.6 5.2 6 9.2 6 4 0 7.6-2.3 9.2-6l18.3-41.7 27.4 6.5c18.8 4.5 31.9 21.1 31.9 40.4v25.9H323V275c0-5.5-4.5-10-10-10s-10 4.5-10 10v20.7h-11.3c-5.5 0-10 4.5-10 10s4.5 10 10 10h61.1c5.5 0 10-4.5 10-10v-35.9c0-1.2 0-2.5-.1-3.7h46.1c5.5 0 10-4.5 10-10v-18.7c-.1-21.9-14.9-40.7-36.1-45.7zm-43.4-92c13.1 0 23.9 10.2 24.7 23.1h-13.9c-11.7 0-23.2-2.8-33.5-8.2 3.7-8.8 12.5-14.9 22.7-14.9zm-24.8 46.4v-10.4c11.2 4.6 23.3 7.1 35.5 7.1h14v4.8c0 13.6-11.1 24.8-24.8 24.8s-24.8-11.1-24.8-24.8v-1.5zm-96.8-33.7c0-21.2 17.2-38.4 38.4-38.4 19.1 0 35 14 37.9 32.3l-16.8-9.9c-4.2-2.5-9.6-1.5-12.7 2.2-8.2 9.8-20.3 15.4-33.1 15.4h-13.7v-1.6zm-44.8-12.7c10.2 0 18.9 6.2 22.7 14.9-10.3 5.4-21.8 8.2-33.5 8.2h-13.9c.8-12.9 11.6-23.1 24.7-23.1zm-24.8 43.1h14c12.2 0 24.3-2.4 35.6-7.1v11.8c0 13.6-11.1 24.8-24.8 24.8s-24.8-11.1-24.8-24.8v-4.7zm48.3 67.1c-19.7 4.7-35.1 18.4-42.5 36.2h-40.5v-8.7c0-12.5 8.5-23.3 20.7-26.3l25.5-6.1c4.5-1.1 7.7-5.1 7.7-9.7v-3.4c1.8.2 3.7.4 5.6.4 1.9 0 3.7-.1 5.6-.4v3.3c0 3.3 1.6 6.5 4.6 8.4 1.1.7 2.3 1.2 3.6 1.4l14.9 3.6-5.2 1.3zm27.9-15.6c-2.6-1.1-5.2-2-8-2.7l-17.9-4.3v-3.1c3.2-2.3 6.1-4.9 8.7-7.9 4.5 6.9 10.3 12.8 17.2 17.2v.8zm43.4 14.7L256 235.7 244.3 209v-7.1c3.8.8 7.8 1.2 11.8 1.2 4 0 7.9-.4 11.6-1.2v7.1zm-11.6-26c-21.2 0-38.4-17.2-38.4-38.4V134h13.7c15.9 0 30.9-5.9 42.5-16.4l20.6 12.1V146c-.8 20.6-17.7 37-38.4 37zm31.6 11.4v-.7c6.9-4.5 12.8-10.4 17.3-17.3 2.5 3 5.4 5.6 8.6 7.8v3.1l-17.9 4.3c-2.7.7-5.4 1.6-8 2.8zm111 51.6H358c-7.4-17.7-22.8-31.5-42.5-36.2l-5-1.2 15-3.6c1.2-.2 2.5-.7 3.6-1.4 3-1.9 4.6-5.1 4.6-8.4V191.9c1.8.2 3.7.4 5.6.4 1.9 0 3.8-.1 5.6-.4v3.4c0 4.6 3.2 8.7 7.7 9.7l25.5 6.1c12.2 2.9 20.7 13.7 20.7 26.3l-.1 8.6z" fill="#00953b"/>
    <path d="M263.1 298.6c-1.9-1.9-4.4-2.9-7.1-2.9-2.6 0-5.2 1.1-7.1 2.9-1.9 1.9-2.9 4.4-2.9 7.1 0 2.6 1.1 5.2 2.9 7.1 1.9 1.9 4.4 2.9 7.1 2.9 2.6 0 5.2-1.1 7.1-2.9 1.9-1.9 2.9-4.4 2.9-7.1 0-2.7-1.1-5.2-2.9-7.1z"/>
    <path class="st0" d="M256 0c-5.5 0-10 4.5-10 10v15c0 5.5 4.5 10 10 10s10-4.5 10-10V10c0-5.5-4.5-10-10-10z"/>
    <path class="st0" d="M219.2 32.6l-10.5-10.5c-3.9-3.9-10.2-3.9-14.1 0-3.9 3.9-3.9 10.2 0 14.1L205 46.8c2 2 4.5 2.9 7.1 2.9 2.6 0 5.1-1 7.1-2.9 3.9-3.9 3.9-10.3 0-14.2z"/>
    <path class="st0" d="M317.2 22.4c-3.9-3.9-10.2-3.9-14.1 0l-10.4 10.4c-3.9 3.9-3.9 10.2 0 14.1 2 2 4.5 2.9 7.1 2.9 2.6 0 5.1-1 7.1-2.9l10.4-10.4c3.8-3.9 3.8-10.2-.1-14.1z"/>
</svg>
