<svg xmlns="http://www.w3.org/2000/svg" height="31.33" width="214.99" xml:space="preserve" y="0" x="0" id="Слой_1" version="1.1">
    <style id="style2" type="text/css">
        .st0{fill:#359444}
    </style>
    <g transform="translate(-128.34 -68.12)" id="g20">
        <path id="polygon4" d="M138.4 87.33h13.12v-7.2H138.4v-4.5h15.26v-7.51h-25.32v31.32h10.06z"/>
        <path id="polygon6" d="M323.03 76.13v23.31h10.06V76.13h10.24v-8.01h-30.59v8.01z"/>
        <path id="rect8" class="st0" fill="#359444" d="M194.13 80.13h37.86v7.5h-37.86z"/>
        <path id="path10" d="M182.38 86.34c1.98-.74 3.48-1.88 4.51-3.42 1.03-1.55 1.55-3.28 1.55-5.19 0-1.73-.4-3.33-1.21-4.81-.8-1.47-2.01-2.64-3.6-3.5-1.59-.87-3.51-1.29-5.75-1.29h-19.17v31.31h10.06V88.02h3.74l5.55 11.42h11.29zm-5.01-6.13c-.54.56-1.21.85-2 .85h-6.6v-5.79h6.6c.79 0 1.46.27 2 .82.55.55.83 1.23.83 2.04 0 .83-.28 1.52-.83 2.08z"/>
        <path id="rect12" class="st0" fill="#359444" d="M194.13 68.32h41.8v7.5h-41.8z"/>
        <path id="rect14" class="st0" fill="#359444" d="M194.13 91.95h41.8v7.5h-41.8z"/>
        <path id="polygon16" d="M241.71 68.12v31.32h9.25v-15.2l13.15 15.2h8.79V68.12h-9.24v15.43L250.5 68.12z"/>
        <path id="path18" d="M293.21 68.13h-13.57v31.31h13.57c10.95 0 16.43-5.22 16.43-15.66 0-10.44-5.48-15.65-16.43-15.65zm6.14 17.02c0 4.53-2.11 6.78-6.33 6.78h-3.32v-16.3h3.32c4.22 0 6.33 2.26 6.33 6.79z"/>
    </g>
</svg>
