<svg version="1.1" id="Capa_1" xmlns="http://www.w3.org/2000/svg" x="0" y="0" viewBox="0 0 496 496" xml:space="preserve">
    <style>
        .st1{fill:#00953b}
    </style>
    <path d="M472 0H171.5c-10.3 0-19.5 6.6-22.8 16.4l-2.5 7.6H120c-13.2 0-24 10.8-24 24v10.4C72.9 65.3 56 86.7 56 112c0 16.7 7.4 31.7 19 42-17.9 13.6-30.1 33.7-33.8 56.1C17.5 216.5 0 238.2 0 264c0 30.9 25.1 56 56 56v48h36c3 11.6 7.6 22.6 13.7 33l-25.5 25.5 45.3 45.3 25.5-25.5c10.4 6.1 21.4 10.7 33 13.7v36h64v-36c11.6-3 22.6-7.6 33-13.7l25.5 25.5 45.3-45.3-25.6-25.5c6.1-10.4 10.7-21.4 13.7-33h36v-64h-36c-3-11.6-7.6-22.6-13.7-33l23-23H448V128h24c13.2 0 24-10.8 24-24V24c0-13.2-10.8-24-24-24zM360 16c13.2 0 24 10.8 24 24s-10.8 24-24 24-24-10.8-24-24 10.8-24 24-24zm-56 0h24.2c-5.1 6.7-8.2 15-8.2 24 0 22.1 17.9 40 40 40 9 0 17.3-3.1 24-8.2V128h-80V16zm-65.5 0c-3.3 9.3-12.1 16-22.5 16s-19.2-6.7-22.5-16h45zM72 112c0-22.1 17.9-40 40-40s40 17.9 40 40-17.9 40-40 40c-8.2 0-15.8-2.5-22.2-6.8l-.2-.4c-.1 0-.1.1-.2.1C78.9 137.7 72 125.7 72 112zm17.5 51.2c2.1.9 4.3 1.7 6.5 2.4v59.2c-10-10.2-23.7-16.3-38.2-16.8 4.2-18.3 15.7-34.6 31.7-44.8zM56 304c-22.1 0-40-17.9-40-40s17.9-40 40-40c12.1 0 23.4 5.6 31 14.8l-6.7 6.7 25.5 25.5C99.6 281.4 95 292.4 92 304H56zm272-57.4l-22.2 22.2 3.6 5.4c8 12.1 13.5 25.3 16.3 39.3l1.3 6.4h33v32h-32.9l-1.3 6.4c-2.8 14-8.3 27.2-16.3 39.3l-3.6 5.4 23.3 23.3-22.6 22.6-23.3-23.3-5.4 3.6c-12.1 8-25.3 13.5-39.3 16.3l-6.4 1.3V480h-32v-32.9l-6.4-1.3c-14-2.8-27.2-8.3-39.3-16.3l-5.4-3.6-23.3 23.3-22.6-22.6 23.3-23.3-3.6-5.4c-8-12.1-13.5-25.3-16.3-39.3l-1.3-6.4H72v-32h32.9l1.3-6.4c2.8-14 8.3-27.2 16.3-39.3l3.6-5.4-23.3-23.3 22.6-22.6 23.3 23.3 5.4-3.6c12.1-8 25.3-13.5 39.3-16.3l6.4-1.3V192h32v32.9l6.4 1.3c14 2.8 27.2 8.3 39.3 16.3l5.4 3.6 23.3-23.3 21.5 21.5v2.3zM432 232h-93.7l-31.8-31.8-25.5 25.5c-10.4-6.1-21.4-10.7-33-13.7v-36h-64v36c-11.6 3-22.6 7.6-33 13.7l-25.5-25.5-13.5 13.5V168c30.9 0 56-25.1 56-56s-25.1-56-56-56v-8c0-4.4 3.6-8 8-8h37.8l6.2-18.5c1.1-3.3 4.2-5.5 7.6-5.5h5.3c3.7 18.2 19.9 32 39.2 32s35.5-13.8 39.2-32H288v88.2c-6.7-5.1-15-8.2-24-8.2-22.1 0-40 17.9-40 40s17.9 40 40 40c19.3 0 35.5-13.8 39.2-32H432v88zm-144-96c0 13.2-10.8 24-24 24s-24-10.8-24-24 10.8-24 24-24 24 10.8 24 24zm192-32c0 4.4-3.6 8-8 8h-24V96h-16v32h-32V40c0-9-3.1-17.3-8.2-24H432v64h16V16h24c4.4 0 8 3.6 8 8v80z" fill="#292929"/>
    <path class="st1" d="M56 240c-13.2 0-24 10.8-24 24s10.8 24 24 24 24-10.8 24-24-10.8-24-24-24zm0 32c-4.4 0-8-3.6-8-8s3.6-8 8-8 8 3.6 8 8-3.6 8-8 8z"/>
    <path class="st1" d="M112 136c13.2 0 24-10.8 24-24s-10.8-24-24-24-24 10.8-24 24 10.8 24 24 24zm0-32c4.4 0 8 3.6 8 8s-3.6 8-8 8-8-3.6-8-8 3.6-8 8-8z"/>
    <path class="st1" d="M216 256c-44.1 0-80 35.9-80 80s35.9 80 80 80c15.2 0 29.9-4.3 42.7-12.4l-8.6-13.5c-10.2 6.5-22 9.9-34.2 9.9-35.3 0-64-28.7-64-64s28.7-64 64-64 64 28.7 64 64c0 17-6.6 33-18.6 45.1l11.4 11.3c15-15.1 23.2-35.1 23.2-56.4.1-44.1-35.8-80-79.9-80z"/>
    <path d="M216 288c-26.5 0-48 21.5-48 48s21.5 48 48 48 48-21.5 48-48-21.5-48-48-48zm0 80c-17.6 0-32-14.4-32-32s14.4-32 32-32 32 14.4 32 32-14.4 32-32 32z"/>
</svg>
