<svg version="1.1" id="Layer_5" xmlns="http://www.w3.org/2000/svg" x="0" y="0" viewBox="0 0 512 512" xml:space="preserve">
    <style>
        .st1{fill:#00953b}
    </style>
    <path d="M456 276.2V119.4c27.1-3.9 48-27.2 48-55.4 0-30.9-25.1-56-56-56s-56 25.1-56 56H8v320h240.4c4.2 66.8 59.7 120 127.6 120 70.6 0 128-57.4 128-128 0-40.3-18.8-76.3-48-99.8zM448 24c22.1 0 40 17.9 40 40s-17.9 40-40 40-40-17.9-40-40 17.9-40 40-40zM24 80h370.4c1.9 6.4 5 12.3 8.9 17.5l-48.9 48.9c-3.1-1.5-6.6-2.4-10.3-2.4s-7.2.9-10.3 2.4l-16.1-16.1c1.5-3.1 2.4-6.6 2.4-10.3 0-13.2-10.8-24-24-24s-24 10.8-24 24c0 3.7.9 7.2 2.4 10.3l-40.1 40.1c-3.1-1.5-6.6-2.4-10.3-2.4-13.2 0-24 10.8-24 24s10.8 24 24 24 24-10.8 24-24c0-3.7-.9-7.2-2.4-10.3l40.1-40.1c3.1 1.5 6.6 2.4 10.3 2.4s7.2-.9 10.3-2.4l16.1 16.1c-1.5 3.1-2.4 6.6-2.4 10.3 0 13.2 10.8 24 24 24s24-10.8 24-24c0-3.7-.9-7.2-2.4-10.3l48.9-48.9c7.3 5.5 16 9.2 25.5 10.6v146c-18.9-11-40.7-17.3-64-17.3-38.2 0-72.5 16.9-96 43.6V256h-48v96h18.3c-1 5.2-1.6 10.6-1.9 16H24V80zm320 80c4.4 0 8 3.6 8 8s-3.6 8-8 8-8-3.6-8-8 3.6-8 8-8zm-56-40c0-4.4 3.6-8 8-8s8 3.6 8 8-3.6 8-8 8-8-3.6-8-8zm-56 72c0 4.4-3.6 8-8 8s-8-3.6-8-8 3.6-8 8-8 8 3.6 8 8zm144 248c-35.3 0-64-28.7-64-64s28.7-64 64-64 64 28.7 64 64-28.7 64-64 64zM264 314.2c-3.8 6.9-7 14.2-9.5 21.8H248v-64h16v42.2zm104-49.8v32c-40.4 4-72 38.2-72 79.6 0 11.7 2.6 22.8 7.1 32.8l-27.8 16c-7.2-14.8-11.4-31.3-11.4-48.9.1-59 46.1-107.4 104.1-111.5zm8 223.6c-38.5 0-72.5-19.5-92.7-49.2l27.9-16.1c14.5 20.1 38.2 33.3 64.8 33.3s50.3-13.2 64.8-33.3l27.9 16.1C448.5 468.5 414.5 488 376 488zm100.6-63.1l-27.8-16c4.5-10 7.1-21.1 7.1-32.8 0-41.4-31.6-75.6-72-79.6v-32c58 4.1 104 52.5 104 111.6.1 17.4-4.1 34-11.3 48.8z" fill="#242424"/>
    <path class="st1" d="M376 328c-26.5 0-48 21.5-48 48s21.5 48 48 48 48-21.5 48-48-21.5-48-48-48zm0 80c-17.6 0-32-14.4-32-32s14.4-32 32-32 32 14.4 32 32-14.4 32-32 32z"/>
    <path class="st1" d="M40 96h16v16H40V96z"/>
    <path class="st1" d="M72 96h112v16H72V96z"/>
    <path class="st1" d="M40 128h16v16H40v-16z"/>
    <path class="st1" d="M72 128h112v16H72v-16z"/>
    <path class="st1" d="M40 160h16v16H40v-16z"/>
    <path class="st1" d="M72 160h112v16H72v-16z"/>
    <path class="st1" d="M40 192h16v16H40v-16z"/>
    <path class="st1" d="M72 192h112v16H72v-16z"/>
    <path class="st1" d="M40 352h48v-80H40v80zm16-64h16v48H56v-48z"/>
    <path class="st1" d="M104 352h48v-64h-48v64zm16-48h16v32h-16v-32z"/>
    <path class="st1" d="M168 352h48V224h-48v128zm16-112h16v96h-16v-96z"/>
</svg>
